<svg xmlns="http://www.w3.org/2000/svg" width="380" height="500" viewBox="0 0 380 500"><defs><style>.a{fill:#44b449;}.b{fill:silver;}.c,.u{fill:none;stroke-linecap:round;stroke-linejoin:round;stroke-width:2px;}.c{stroke:#ff3941;}.d{fill:#2b2b2b;}.e{fill:#434343;}.f{fill:#fe7a16;}.g{fill:#818185;}.h{fill:#b8b8b8;}.i{fill:#c96;}.j{fill:#c5c5c5;}.k{fill:#fc0;}.l{fill:#9e9e9e;}.m{fill:#fff;}.n{fill:#ccc;}.o{fill:#d35f5f;}.p{fill:#f89393;}.q{fill:#fe6502;}.r{fill:#7a7a7a;}.s{fill:#c03433;}.t{fill:#db2424;}.u{stroke:#ff912c;}.v{fill:#d0d2d3;}.w{fill:#959595;}.x{fill:#1d3f6a;}.y{fill:#bd2026;}</style></defs><title>sprites</title><polygon class="a" points="49 281 49 288.6 57.5 296.2 74 281.4 74 273.2 57.5 288.1 49 281"/><polygon class="a" points="23.4 324.2 23.4 327.7 27.5 331.3 34.4 325.1 34.4 321.3 27.5 327.5 23.4 324.2"/><polygon class="b" points="9 281 9 288.6 17.6 296.2 34 281.4 34 273.2 17.6 288.1 9 281"/><path class="c" d="M46.9,195.9l-.2-.1,6.1-.2-4-2.5c.1-.1,11.5,3.2,11.6,2.9.1-.1-9.1-5.7-9.1-5.7.3-.5,15.4,5.9,15.4,5.8s-13.2-7.9-13-8.1c.4-.6,19.2,8.4,19.5,8L56.5,185.6s11.2,3.3,11.3,3.2l-9.6-6"/><path class="d" d="M47.1,196.6c0,.1.1.1,0,.2h-.7c-.2,0,0,.1,0,.1h-.3c-.1.1.1.1.4.1C47.2,196.9,48.9,196.8,47.1,196.6Z"/><path class="d" d="M48.4,196.5h-.9c-.1,0-.2.1-.1.1C47.8,196.6,48.1,196.5,48.4,196.5Z"/><path class="d" d="M47.5,194.2l-.1.1.1-.1h0l-1.3,1.3-.1.2c1.1-1.1,2.2-2.3,3.1-3.3C48.5,193.1,48.1,193.6,47.5,194.2Z"/><path class="d" d="M46.1,195.9l-.1.1Z"/><path class="d" d="M66.4,186.1c.7.7,1.3,1.3,2,1.9-1.3-1.3-2.7-2.6-3.7-3.6C65.2,185,65.8,185.5,66.4,186.1Z"/><path class="d" d="M71.6,190.9a15.58,15.58,0,0,0-2.3-2.2c.7.7,1.4,1.4,2,2.1C71.4,190.8,71.5,190.9,71.6,190.9Z"/><path class="d" d="M70.5,190c-.8-.8-1.5-1.4-2.2-2.1C69.1,188.7,69.9,189.4,70.5,190Z"/><path class="d" d="M55.3,188a10.92,10.92,0,0,0-.9,1.1c-.1.1-.1.2-.2.4l.1-.1c.5-.6,1-1.1,1.5-1.7.2-.2.4-.5.6-.7C56,187.4,55.6,187.7,55.3,188Z"/><path class="d" d="M54.4,189.1c.5-.8-.7.7,0,0Z"/><path class="d" d="M56.8,184.9h0l.3-.3Z"/><path class="d" d="M63,183.9l-1.4-1.4c.9.9,1.8,1.9,2.6,2.6-.1-.1-.2-.3-.3-.4A3,3,0,0,1,63,183.9Z"/><path class="d" d="M53.4,188.6c1.2-1.3,2.3-2.6,3.5-3.8.6-.7,1.3-1.3,1.9-2s1.3-1.4,2-2.1l1.7,1.7a19.2,19.2,0,0,0,1.5,1.4c1.9,1.8,5,5.1,7.1,6.7a2.65,2.65,0,0,1-.5-.6c.3.2.5.5.8.7l2.3,2.3c1.3,1.3,2.6,2.7,3.9,4H68.8c-.7,0-1.1.1-1.8.1H65c-2.7,0-5.3.1-8.1.1H53c-.5,0-.5-.1-.8-.1-1.3-.1-2.3-.2-3.7-.2v-.1h-.6c.7-.2,2.5-.3.6-.4h.3c.4,0,.7-.1,1-.1H49a.1.1,0,0,0,.1-.1h.4c.7-.1,1.9-.1,1.7-.2H49.8c.8,0,0-.1.5-.2h2c2.6,0,4.9,0,7.5-.1h6.8l3.7-.1c1,0,2.1,0,3.2-.1h.8l-3.9-3.9,2.4,2.4c.2.3.5.5.7.8-.2-.3-.5-.5-.7-.8a35.73,35.73,0,0,0-4-3.9.77.77,0,0,1-.2-.3c-.8-.8-1.6-1.7-2.3-2.3,0,0-.4-.3-.3-.2L63.8,185a6.47,6.47,0,0,0-.9-.8,15.39,15.39,0,0,0-1.3-1.2l-.3-.3-.1-.1h0l-.1-.1-.1.1v.1l-.3.3c-.4.4-.8.9-1.2,1.3-.8.9-1.6,1.8-2.5,2.7l-2.1,2.1,2.9-3.2c1-1,1.9-2,2.7-2.8l.3-.3.2-.2c-1,1.1-2.1,2.2-3.1,3.3l-1.8,1.8h0l1.3-1.5c.9-.9,1.7-1.8,2.4-2.5.1-.1.2-.2.2-.3.2-.2.3-.4.5-.6-.7.7-1.3,1.4-2,2.1l-1.2,1.3-.8.8.1-.1c.2-.2.7-1.1.3-.8-1.7,1.8-4,4.2-4.2,4.4s2.8-3.1,2.6-3l-.5.5.4-.5c.3-.4.8-.8,1-1.1.7-.9,1.7-1.8,2.5-2.8.5-.6,1.1-1.4,1.8-2.1,0,0,.3-.4.2-.3l.2-.3a15.49,15.49,0,0,0,1.5,1.4h0l.2.2c1,1.1,1.9,1.8,2.9,2.8l1,1a6,6,0,0,0-.8-.8l-.2-.2c-.9-.8-1.7-1.7-2.6-2.5l-.3-.3-.2-.2h-.1a19.2,19.2,0,0,0-1.5-1.4,9,9,0,0,1-.9,1c-1.2,1.3-2.6,2.7-3.9,4,.6-.7,1.2-1.3,1.8-2-.7.8-1.5,1.6-2.1,2.3l-.3.3-.7.7.6-.6-1.2,1.3q-3.3,3.6-6.9,7.2l.1-.2c1.1-1.1,2.2-2.3,3.1-3.3-.6.7-1.1,1.1-1.7,1.8v-.1a17.88,17.88,0,0,0-1.3,1.4l.4-.6a7.3,7.3,0,0,1,.9-1c1.5-1.5,2.8-2.9,4.3-4.5l3.9-3.9C55.6,186.2,54.5,187.4,53.4,188.6Zm-1.4,8h0Zm3.8,0h-4C53,196.7,54.4,196.6,55.8,196.6Zm4.4.4ZM72,192.3c.3.2.5.5.8.7l.8.8c.7.8,1.5,1.5,2.3,2.3l.3.3c-.5,0-1,.1-1.7.1-1.1,0-1.8.1-2.6.1H69.4a1,1,0,0,1-.3.1H66.8a17,17,0,0,0-2.3.1c-.2,0-.5.1-.8.1h-.2c1,0,2.1-.1,3.1-.1,2.6-.1,5.2-.1,7.8-.2.6,0,1.4-.1,2-.1h0L74,194.1l-.5-.5-.4-.4c-.2-.2-.5-.4-.7-.6C72.4,192.7,72.2,192.4,72,192.3Zm-1.9-.7c.6.6,1.3,1.2,1.9,1.9l.9.9.6.6.7.7c-.5,0-1,.1-1.4.1s-.8.1-.5.2a12.14,12.14,0,0,1,2.3-.2c-1-1-2.1-2.1-2.9-3C70.6,191.8,70,191.2,70.1,191.6Zm-9.2-9.1.1.1h.1l.2.2.8.8-.8-.7-.2-.2-.1-.1Zm5,4c-.8-.7-1.6-1.5-2.4-2.2s-1.5-1.5-2.3-2.2l-.5-.5c-.5.6-1.7,1.7-2.4,2.6h0l.1-.1c.4-.4.8-.7,1.1-1l-.1.1.1-.1.7-.7.2-.2.3-.3c.5.5,1.1,1,1.6,1.6s1.3,1.2,1.9,1.8c.8.7,1.6,1.5,2.4,2.2A8.65,8.65,0,0,0,65.9,186.5Z"/><path class="d" d="M55.5,186.5l-1.4,1.6c-.4.4-.7.8-1.1,1.2l-5.8,6.1c0,.1,0,.1.1.1,2.2-2.1,4.2-4.4,6.4-6.5v-.1c.8-1,2.3-2.5,3.4-3.7s2.2-2.4,3.2-3.6C58.7,183.3,57.1,184.9,55.5,186.5Z"/><path class="d" d="M69.3,188.7a18.48,18.48,0,0,0-1.4-1.4c-1.3-1.3-2.4-2.4-3.6-3.5.8.9,1.7,1.7,2.5,2.6S68.5,188,69.3,188.7Z"/><path class="d" d="M63.4,182.9a9,9,0,0,0,1,.9l-3.6-3.6-.9.9c-2,2.2-4,4.3-6,6.5a4.62,4.62,0,0,1-.7.7c1.3-1.3,2.5-2.5,3.7-3.8s2.6-2.7,3.8-4l1.1,1.1.9.9c.6.5,1.1,1.1,1.7,1.6l.2.2c-1.3-1.3-2.6-2.7-3.9-4-.4.5-.9.9-1.3,1.4l1.3-1.4,1.5,1.5A12,12,0,0,0,63.4,182.9Z"/><polygon class="d" points="56 186 55.6 186.4 55.3 186.8 55.5 186.5 56 186"/><path class="d" d="M59.6,183.1h0a9,9,0,0,1,.9-1l.3-.3.4.3.5.5-.8-.8A8,8,0,0,0,59.6,183.1Z"/><path class="d" d="M61.6,183.4c.1.1.3.4.5.5l.2.2-.3-.3Z"/><path class="d" d="M68.5,190.1c-2-2-4-3.9-5.9-5.8l-.3-.3c1.2,1.3,2.5,2.6,3.7,3.7a6,6,0,0,1,.8.8c1.1,1.1,2.1,2.1,3.2,3.1a10.61,10.61,0,0,1-1.5-1.5Z"/><path class="d" d="M7.1,196.6c0,.1.1.1,0,.2H6.5c-.2,0,0,.1,0,.1H6.2c-.1.1.1.1.4.1C7.2,196.9,8.9,196.8,7.1,196.6Z"/><path class="d" d="M8.3,196.5H7.5c-.1,0-.2.1-.1.1C7.8,196.6,8.1,196.5,8.3,196.5Z"/><path class="d" d="M7.5,194.2l-.1.1a.1.1,0,0,1,.1-.1h0a15.38,15.38,0,0,0-1.2,1.3l-.1.2a42.79,42.79,0,0,0,3-3.3C8.5,193.1,8.1,193.6,7.5,194.2Z"/><path class="d" d="M6.1,195.9,6,196Z"/><path class="d" d="M26.2,186.2a16.24,16.24,0,0,0,2,1.8c-1.3-1.3-2.7-2.6-3.7-3.6C25.1,185,25.7,185.6,26.2,186.2Z"/><path class="d" d="M31.4,190.9a15.58,15.58,0,0,0-2.3-2.2l2,2A1.24,1.24,0,0,1,31.4,190.9Z"/><path class="d" d="M30.4,190c-.8-.8-1.5-1.4-2.2-2C29,188.7,29.7,189.4,30.4,190Z"/><path class="d" d="M15.2,188a10.92,10.92,0,0,0-.9,1.1c-.1.1-.1.2-.2.4l.1-.1c.5-.6,1-1.1,1.5-1.7a3,3,0,0,0,.5-.7Z"/><path class="d" d="M14.3,189.1c.5-.9-.7.7,0,0Z"/><path class="d" d="M16.7,184.8h0l.3-.3Z"/><path class="d" d="M22.8,184a17.88,17.88,0,0,0-1.4-1.3l2.6,2.6c-.1-.1-.2-.3-.3-.4A3.82,3.82,0,0,0,22.8,184Z"/><path class="d" d="M13.3,188.6c1.2-1.3,2.3-2.6,3.5-3.8,1.3-1.4,2.6-2.7,3.8-4,.6.6,1.2,1.2,1.8,1.7l1.5,1.5c1.9,1.8,5,5,7.1,6.7l-.6-.6c.3.2.5.5.8.7l2.3,2.3c1.3,1.3,2.6,2.7,3.9,4H28.7c-.6,0-1.1.1-1.8.1H25c-2.7,0-5.3.1-8.1.1H13c-.5,0-.5-.1-.8-.1-1.3-.1-2.3-.2-3.7-.2v-.1H7.9c.7-.2,2.5-.3.6-.4h.3c.4,0,.7-.1,1-.1H9a.1.1,0,0,0,.1-.1h.4c.7-.1,1.9-.1,1.7-.2H9.8c.8,0,0-.1.5-.2h1.9c2.6,0,4.9,0,7.5-.1h6.8l3.7-.1c1,0,2.1,0,3.1-.1h.8l-3.9-3.9,2.4,2.4c.2.3.5.5.7.8a5,5,0,0,1-.7-.8c-1.4-1.4-2.8-2.9-4-3.9a.77.77,0,0,1-.2-.3l-2.3-2.3s-.4-.3-.3-.2l-2.2-2.2a6.47,6.47,0,0,0-.9-.8,15.93,15.93,0,0,1-1.3-1.3l-.3-.3-.1-.1h0l-.1-.1-.1.1v.1l-.3.3a15.38,15.38,0,0,0-1.2,1.3c-.8.9-1.6,1.7-2.4,2.7-.7.7-1.4,1.5-2,2.1,1-1.1,1.9-2.1,2.8-3.2s1.9-2,2.6-2.8a2.74,2.74,0,0,1,.4-.5l-3,3.3-1.8,1.8h0l1.1-1.6c.9-.9,1.7-1.8,2.4-2.5.1-.1.2-.2.2-.3.2-.2.3-.4.5-.6-.6.7-1.3,1.4-1.9,2.1L17,186.2l-.8.8.1-.1c.2-.2.7-1.1.3-.8-1.7,1.8-4,4.2-4.1,4.4s2.7-3.1,2.6-3l-.5.5.4-.5c.3-.4.8-.8,1-1.1.7-.9,1.6-1.8,2.5-2.8.5-.6,1.1-1.4,1.7-2.1,0,0,.3-.4.2-.3l.2-.2c.6.6,1.2,1.3,1.6,1.4h0l.2.2a35.76,35.76,0,0,0,2.9,2.7l1,1a6,6,0,0,0-.8-.8l-.2-.2c-.9-.8-1.7-1.7-2.6-2.5l-.3-.3-.2-.2h-.1c-.5-.5-1.1-1-1.6-1.5-.3.3-.6.7-.9,1-1.2,1.3-2.6,2.7-3.8,4,.6-.7,1.2-1.3,1.8-2-.7.8-1.4,1.6-2.1,2.3l-.3.3-.7.7.6-.6-1.2,1.3c-2.2,2.4-4.5,4.8-6.8,7.2l.1-.2a42.79,42.79,0,0,0,3-3.3c-.6.7-1.1,1.1-1.7,1.8v-.1c-.4.4-.8.9-1.3,1.4l.4-.6a7.3,7.3,0,0,1,.9-1c1.5-1.5,2.8-2.9,4.2-4.5,1.3-1.3,2.6-2.6,3.8-3.9A26.69,26.69,0,0,1,13.3,188.6Zm-1.3,8h0Zm3.8,0h-4C12.9,196.7,14.4,196.6,15.8,196.6Zm4.4.4Zm11.7-4.7c.3.2.5.5.8.7a6,6,0,0,1,.8.8l2.3,2.3.4.4c-.5,0-.9.1-1.6.1-1.1,0-1.8.1-2.7.1H29.4a1,1,0,0,1-.3.1H26.8a17,17,0,0,0-2.3.1c-.2,0-.5.1-.8.1h-.2c1,0,2.1-.1,3.1-.1,2.6-.1,5.2-.1,7.8-.2.6,0,1.3-.1,2-.1h0L34,194.2l-.5-.5-.4-.4c-.2-.2-.5-.4-.7-.6C32.3,192.7,32,192.4,31.9,192.3Zm-1.9-.7c.6.6,1.3,1.2,1.9,1.8l.9.9.6.6.7.7c-.5,0-1,.1-1.4.1s-.7.1-.5.2a11,11,0,0,1,2.2-.2c-1-1-2.1-2.1-2.9-3C30.5,191.8,29.9,191.2,30,191.6Zm-9.3-9.1s.7.6,1.2,1.1C21.4,183.2,20.7,182.5,20.7,182.5Zm5,4.1c-.8-.7-1.6-1.5-2.4-2.2s-1.5-1.5-2.3-2.2c-.2-.2-.4-.3-.5-.5-.5.6-1.7,1.7-2.4,2.5h0l.1-.1a10,10,0,0,1,1.1-1l-.1.1.1-.1.3-.3.3-.3.2-.3.2-.2,1.6,1.6c.7.6,1.3,1.3,1.9,1.8.8.7,1.6,1.5,2.4,2.2A.94.94,0,0,0,25.7,186.6Z"/><path class="d" d="M15.4,186.5,14,188.1c-.4.4-.7.8-1.1,1.2-1.7,1.9-3.9,4.1-5.8,6.2,0,.1,0,.1.1.1,2.2-2.1,4.2-4.4,6.3-6.6v-.1c.8-1,2.3-2.5,3.4-3.7s2.2-2.5,3.2-3.7C18.6,183.2,17,184.9,15.4,186.5Z"/><path class="d" d="M29.2,188.7l-1.4-1.4c-1.3-1.3-2.4-2.4-3.6-3.5.8.9,1.7,1.7,2.5,2.6S28.4,188,29.2,188.7Z"/><path class="d" d="M23.2,183a9,9,0,0,0,1,.9c-1.2-1.2-2.4-2.5-3.6-3.7l-.8.8c-2,2.2-4,4.3-6,6.6a4.62,4.62,0,0,1-.7.7c1.2-1.3,2.5-2.5,3.7-3.8s2.5-2.7,3.8-4l1.2,1.1.9.9c.6.5,1.1,1.1,1.7,1.6l.2.2-4-4c-.4.4-.8.9-1.2,1.3l1.2-1.3,1.5,1.5A12,12,0,0,1,23.2,183Z"/><polygon class="d" points="15.9 186 15.5 186.3 15.2 186.7 15.4 186.5 15.9 186"/><path class="d" d="M19.5,183h0c.3-.3.6-.7.9-1,.1-.1.1-.2.2-.3l.4.3.5.5-.9-.9C20.2,182.2,19.8,182.6,19.5,183Z"/><path class="d" d="M21.5,183.5l.5.5.2.2-.3-.3Z"/><path class="d" d="M28.4,190.1c-2-2-4-3.9-5.9-5.8-.1-.1-.2-.2-.3-.2,1.2,1.3,2.5,2.6,3.7,3.7a6,6,0,0,1,.8.8c1.1,1.1,2.1,2.1,3.2,3.1-.5-.5-1-1-1.5-1.6Z"/><path class="e" d="M51.2,240.4h0l-.3-.3Z"/><path class="e" d="M51,236.7H49.6c.7,0,2.2,0,3.3-.1h-.5C52,236.6,51.5,236.7,51,236.7Z"/><polygon class="e" points="52.3 241.2 52.6 241.5 53 241.9 52.8 241.7 52.3 241.2"/><path class="e" d="M49.6,237.8h0a4.62,4.62,0,0,1-.7-.7l-.3-.3a2.77,2.77,0,0,0,.9-.1h-1Z"/><path class="c" d="M61.7,250.4l-.8-.5,3.2-2-13.8-8.6c.1-.2,16.9,6.7,17.1,6.4s-15.3-9.5-15.2-9.5c.4-.6,17.6,7.3,17.7,7.1,0,0-11.5-6.9-11.4-7.1.3-.4,13.5,4.6,13.6,4.4l-6.7-4.2s8.5,1.6,8.6,1.5l-2.9-1.8"/><path class="e" d="M63.4,250.7l-.2.2h0A.22.22,0,0,0,63.4,250.7Z"/><path class="e" d="M63.2,251c.1,0,.2,0,.2.2s-.3.4-.5.5.1.1.1.1l-.2.2c0,.1.1,0,.3-.2C63.5,251.1,64.7,249.7,63.2,251Z"/><path class="e" d="M64,249.9l-.6.6c0,.1-.1.2,0,.2A2.1,2.1,0,0,0,64,249.9Z"/><path class="e" d="M60.3,249.8l.1.1-.1-.1h0l1.3,1.3.2.1c-1.1-1.1-2.2-2.3-3.2-3.1C59.2,248.8,59.7,249.2,60.3,249.8Z"/><path class="e" d="M62,251.3l.1.1Z"/><path class="e" d="M55,235.7a22.81,22.81,0,0,0,2.7-.2c-1.8.1-3.7.1-5.2.2A10.44,10.44,0,0,0,55,235.7Z"/><path class="e" d="M62,235.3c-1.2,0-2.2,0-3.2.1h2.9C61.8,235.4,61.9,235.3,62,235.3Z"/><path class="e" d="M60.7,235.5c-1.1,0-2.1.1-3,.1C58.7,235.6,59.8,235.5,60.7,235.5Z"/><path class="e" d="M54.3,241.9a14.66,14.66,0,0,1,1.1,1,1.38,1.38,0,0,0,.4.3l-.1-.1c-.6-.5-1.1-1-1.7-1.6-.2-.2-.5-.4-.7-.6A9.43,9.43,0,0,1,54.3,241.9Z"/><path class="e" d="M55.4,242.9c-.9-.5.7.7,0,0Z"/><path class="d" d="M54.9,243.9c-1.3-1.2-2.5-2.4-3.8-3.6l-4.2-4.2a22.6,22.6,0,0,0,2.6-.1h1.2a3.4,3.4,0,0,0,1-.1c2.6-.2,7.2-.1,9.8-.4h-.8c.4,0,.7-.1,1.1-.1,2.2,0,4.3-.1,6.4-.1h7.3c1.2,0,2.2,0,3.4-.1h.2c-.8.8-1.6,1.7-2.4,2.5h0c-1.1,1.2-2.3,2.4-3.4,3.7-.9,1-1.8,2-2.8,3s-1.8,1.9-2.7,2.8c-.3.4-.4.3-.6.5-1,.9-1.7,1.5-2.7,2.5h0l-.4.4c.3-.7,1.5-2,.1-.7h0c.1-.1.1-.2.2-.2h0c.3-.3.4-.6.6-.8l-.6.6v-.2l.2-.2V249c.5-.6,1.2-1.5,1-1.4a4.81,4.81,0,0,0-.9,1l-.1.1c.5-.6-.1-.1.2-.5s.9-.9,1.3-1.4c1.8-1.9,3.4-3.5,5.1-5.5l.2-.3c.9-.9,1.7-1.8,2.5-2.7,0,.1-.1.1-.1.2l.9-.9a5,5,0,0,0,.7-.8l.2-.3-2.6.1c-1.2,0-2.3,0-3.5.1-2.7,0-5.4.1-8.1.1,1.1,0,2.3-.1,3.4-.1h0a47.9,47.9,0,0,0-5.6.2h-.3c-1.1,0-2.3,0-3.3.1,0,0-.5,0-.3.1-1,0-2.1,0-3.1.1-.4,0-.8.1-1.3.1-.8,0-.7,0-.9.1a.37.37,0,0,0-.3.1l.3.2.1.1.1.1.3.3c.9.8,1.7,1.7,2.6,2.5l2.1,2.1c-1-1-2.1-2-3.1-2.9a19.2,19.2,0,0,1-1.4-1.5l-.3-.3-.2-.2c-.1-.1,0,0-.1,0s-.1-.1-.2-.1l-.2-.1.2.2.1.1.4.4,1.7,1.6,1.8,1.8h0l-1.4-1.4a15.93,15.93,0,0,0-1.3-1.3l-.6-.6-.3-.3-.1-.1h0l-.1-.1-.2-.2.4.4,1,1,1.3,1.2.8.8-.1-.1c-.2-.2-1-.7-.7-.3,1.8,1.7,4.1,4.1,4.3,4.2s-3-2.8-2.9-2.7.3.4.5.5l-.5-.4c-.4-.3-.8-.8-1.1-1a32.51,32.51,0,0,1-2.7-2.6c-.6-.5-1.3-1.1-2-1.8-.1,0-.4-.4-.3-.3l-.2-.3a10.36,10.36,0,0,0,2-.1h2.5c.6,0,1.3-.1,1.9-.1h.1c-1.2,0-2.4.1-3.6.1h-.8c-.7,0-1.4.1-2.1.1.4.3.7.7,1.1,1,1.3,1.2,2.6,2.6,3.9,4-.7-.6-1.3-1.2-2-1.9.8.8,1.6,1.5,2.3,2.2l.3.3.7.7a4.35,4.35,0,0,1-.6-.7l1.3,1.2c2.3,2.3,4.7,4.6,7,7l-.2-.1c-1.1-1.1-2.2-2.3-3.2-3.1l1.7,1.7h-.1l1.3,1.3-.6-.4c-.3-.2-.6-.6-1-.9l-4.4-4.4-3.9-3.9C52.5,241.6,53.7,242.7,54.9,243.9Zm11.7,3.5c.1-.1.2-.3.3-.4h-.1A.52.52,0,0,1,66.6,247.4Zm2.7-2.7c-.8.8-1.8,1.9-2.7,2.9h0C67.4,246.8,68.3,245.7,69.3,244.7Zm3.4-3ZM63.4,236c1.3-.1,2.9-.1,4.6-.1.5,0,1-.1,1.6-.1.8,0,1.3-.1,2-.1h2.7a2,2,0,0,1,.5-.1h3.7c-.9.9-1.8,1.9-2.5,2.7l-.4.4c-.2.2-.3.4-.5.5-.3.3-.5.6-.8.9h0l.7-.7c1.1-1.2,2.3-2.5,3.4-3.6l.2-.2c-1.8,0-3.6.1-5.4.1-1.1,0-2.2.1-3.4.1-.5,0-1,.1-1.5.1-1.5.1-3.3.1-4.2.2A.63.63,0,0,0,63.4,236Zm-1.8.8c1.7-.1,3.6-.1,5.2-.1,1.3,0,5-.1,4.4-.4C69.6,236.8,60.4,236.4,61.6,236.8Zm-11.8.4a3.54,3.54,0,0,1,.6-.1Zm5.1-.8c-1.1.1-2.2.1-3.3.1H50.1l-1.2.1h-.6l1,1,.5.5c.2.2.5.4.7.6h0l-.1-.1a2.65,2.65,0,0,1-.5-.6l-.3-.3h0l-.1-.1c-.1-.1-.2-.3-.4-.4l-.3-.2-.3-.3a8.6,8.6,0,0,0,1.6-.1h1.2a6.15,6.15,0,0,0,1.3-.1c1.1-.1,2.2-.1,3.3-.2A3.08,3.08,0,0,1,54.9,236.4Z"/><path class="e" d="M52.8,241.7l1.5,1.5c.4.4.8.7,1.2,1.1,1.9,1.8,4,4,6,6,.1,0,.1,0,.1-.1-2.1-2.2-4.3-4.3-6.4-6.5h-.1c-1-.8-2.4-2.4-3.7-3.5-.6-.5-1.2-1.1-1.8-1.6s-1.1-1-1.7-1.6A53.83,53.83,0,0,1,52.8,241.7Z"/><path class="e" d="M58.9,235.4H57c-1.8,0-3.4.1-5,.2h3.6C56.7,235.6,57.8,235.5,58.9,235.4Z"/><path class="e" d="M50.6,235.7a5.7,5.7,0,0,0,1.3-.1c-2,0-3.9,0-5.9.1l.9.9,2.3,2.2,1.6,1.5c1,1,2.1,2,3.1,3l.7.7c-1.3-1.3-2.5-2.6-3.7-3.8-1.4-1.4-2.8-2.9-4.2-4.3,1.1,0,2.1,0,3.1-.1h1.4a4.87,4.87,0,0,0,1.2-.1h.3c-2.1,0-4.2,0-6.2.1l1.4,1.4-1.4-1.4C47.7,235.8,49.1,235.7,50.6,235.7Z"/><path class="e" d="M59.3,237c-2.9.1-5.6.2-8.3.2h-.4c1.8,0,3.6,0,5.2-.1.3,0,.8-.1,1.1-.1,1.5,0,3-.1,4.5-.1-.6,0-1.3.1-2.1.1Z"/><path class="d" d="M23.2,250.8l-.2.2h0C23.1,250.9,23.1,250.8,23.2,250.8Z"/><path class="d" d="M23,251c.1,0,.2,0,.2.2l-.5.5c-.1.1.1.1.1.1l-.2.2c0,.1.1,0,.3-.2C23.3,251.1,24.4,249.7,23,251Z"/><path class="d" d="M23.8,249.9l-.6.6c0,.1-.1.2,0,.2A2.1,2.1,0,0,0,23.8,249.9Z"/><path class="d" d="M20.1,249.8l.1.1-.1-.1h0a15.83,15.83,0,0,0,1.3,1.3l.2.1c-1.1-1.1-2.2-2.3-3.2-3.1C19,248.8,19.5,249.2,20.1,249.8Z"/><path class="d" d="M21.8,251.3l.1.1C21.8,251.3,21.8,251.2,21.8,251.3Z"/><path class="d" d="M15,235.7a22.81,22.81,0,0,0,2.7-.2c-1.8.1-3.7.1-5.1.2A19.22,19.22,0,0,0,15,235.7Z"/><path class="d" d="M22.1,235.3c-1.2,0-2.2,0-3.2.1h2.9C21.9,235.4,22,235.3,22.1,235.3Z"/><path class="d" d="M20.7,235.5c-1.1,0-2,.1-3,.1C18.8,235.6,19.8,235.5,20.7,235.5Z"/><path class="d" d="M14.2,241.9c.5.5.9.8,1.1,1a1.38,1.38,0,0,0,.4.3l-.1-.1c-.6-.5-1.1-1.1-1.7-1.6-.2-.2-.5-.4-.7-.6A9.43,9.43,0,0,1,14.2,241.9Z"/><path class="d" d="M15.2,242.8c-.8-.5.7.7,0,0Z"/><path class="d" d="M11.1,240.3h0l-.3-.3Z"/><path class="d" d="M11.1,236.7h0a10.87,10.87,0,0,0,1.8-.1h-.5C12.1,236.6,11.6,236.7,11.1,236.7Z"/><path class="d" d="M14.7,243.8c-1.2-1.2-2.5-2.4-3.7-3.6-1.4-1.4-2.8-2.8-4.1-4.2a22.6,22.6,0,0,0,2.6-.1c1,0,1.6-.1,2.3-.1,2.6-.2,7.1-.1,9.7-.4h-.8c.4,0,.7-.1,1.1-.1,2.2,0,4.3-.1,6.4-.1h7.4c1.2,0,2.2,0,3.4-.1-.9.9-1.7,1.8-2.5,2.6h0c-1.1,1.2-2.2,2.4-3.4,3.6-.9,1-1.8,2-2.8,3s-1.8,1.9-2.7,2.8c-.3.3-.4.3-.6.5-1,.9-1.7,1.5-2.7,2.5h0l-.4.4c.3-.7,1.5-2,.1-.7h0l.2-.2h0c.3-.3.4-.6.6-.8l-.6.6v-.2l.2-.2v-.1c.5-.6,1.2-1.5,1-1.4a4.81,4.81,0,0,0-.9,1l-.1.1c.5-.6-.1-.1.2-.5s.9-.9,1.3-1.4c1.8-1.9,3.4-3.5,5.1-5.4l.2-.3c.9-.9,1.7-1.8,2.5-2.7,0,.1-.1.1-.1.2l.9-.9a5,5,0,0,0,.7-.8l.3-.3-2.5.1c-1.1,0-2.3,0-3.5.1-2.7,0-5.3.1-8.1.1,1.1,0,2.3-.1,3.4-.1h0a47.9,47.9,0,0,0-5.6.2h-.3c-1.1,0-2.3,0-3.2.1,0,0-.5,0-.3.1-1,0-2.1,0-3.1.1-.4,0-.8.1-1.3.1h-.9a.37.37,0,0,0-.3.1l.3.2.1.1h.1l.3.3c.8.8,1.7,1.7,2.6,2.5l2.1,2.1c-1-1-2.1-2-3.1-3s-2.2-2.3-2.1-2.1l-.2-.1.2.2.1.1h0l.1.1.2.2,1.7,1.6c.6.6,1.2,1.2,1.7,1.8h0L12.5,240a15.93,15.93,0,0,0-1.3-1.3l-.6-.6c-.2-.2-.4-.4-.5-.4H10l-.2-.2.4.3,1,1,1.3,1.2.8.8-.1-.1c-.2-.2-1-.7-.7-.3,1.7,1.8,4.1,4.1,4.2,4.3s-3-2.8-2.9-2.7.3.4.5.5l-.5-.4a9.32,9.32,0,0,1-1-1c-.9-.7-1.7-1.7-2.7-2.6-.6-.5-1.3-1.1-2-1.8-.1,0-.4-.4-.3-.3l-.2-.2a11.57,11.57,0,0,0,2.1-.1h2.5c.6,0,1.3-.1,1.9-.1h.1c-1.2,0-2.4.1-3.6.1H9.8a24.51,24.51,0,0,1-2.5.1c.3.3.7.6,1,.9,1.3,1.3,2.6,2.6,3.9,4-.7-.6-1.3-1.2-2-1.9.8.8,1.5,1.5,2.3,2.2l.3.3.7.7a4.35,4.35,0,0,1-.6-.7l1.3,1.2,7,7-.2-.1c-1.1-1.1-2.2-2.3-3.2-3.1l1.7,1.7h-.1l1.3,1.3-.6-.4a7.64,7.64,0,0,1-.9-.9c-1.5-1.5-2.8-2.9-4.3-4.4-1.3-1.3-2.6-2.7-3.8-4A45,45,0,0,0,14.7,243.8Zm11.7,3.6c.1-.1.2-.3.3-.4h-.1A.52.52,0,0,1,26.4,247.4Zm2.7-2.7c-.8.8-1.8,1.9-2.7,2.9h0C27.2,246.8,28.1,245.7,29.1,244.7Zm3.3-2.9Zm-9-5.8c1.3-.1,2.9-.1,4.5-.1.5,0,1-.1,1.6-.1.8,0,1.3-.1,1.9-.1h2.7a2,2,0,0,1,.5-.1h3.5l-.1.1c-.9.9-1.8,1.9-2.5,2.7l-.4.4c-.1.2-.3.3-.4.5-.3.3-.5.6-.8.9h0l.7-.7,3.3-3.6.3-.3c-1.8,0-3.6.1-5.4.1-1.1,0-2.2.1-3.3.1-.5,0-1,.1-1.5.1-1.5.1-3.2.1-4.2.2C23.9,235.9,23.6,235.9,23.4,236Zm-1.8.8c1.7-.1,3.6-.1,5.2-.1,1.3,0,5-.1,4.4-.4C29.6,236.8,20.5,236.4,21.6,236.8Zm-11.9.4a3.54,3.54,0,0,1,.6-.1Zm5.3-.8c-1.1.1-2.1.1-3.2.1H10.2l-1.2.1H8.3l1,1,.5.5a4.35,4.35,0,0,0,.7.6h0l-.1-.1c-.2-.2-.3-.4-.5-.6l-.3-.3h0l-.1-.1c-.1-.1-.2-.3-.4-.4l-.3-.2-.2-.2a9.7,9.7,0,0,0,1.7-.1h1.3a6.15,6.15,0,0,0,1.3-.1c1.1-.1,2.2-.1,3.2-.2Z"/><path class="d" d="M12.7,241.6l1.5,1.5c.4.4.8.7,1.2,1.1,1.9,1.8,4,4,6,6,.1,0,.1,0,.1-.1-2.1-2.2-4.3-4.3-6.3-6.5h-.1c-1-.9-2.4-2.4-3.6-3.5-.6-.5-1.2-1.1-1.8-1.7s-1.1-1-1.7-1.6C9.5,238.4,11.1,239.9,12.7,241.6Z"/><path class="d" d="M18.9,235.4H17c-1.8,0-3.4.1-5,.2h3.6C16.8,235.6,17.8,235.5,18.9,235.4Z"/><path class="d" d="M10.7,235.7a5.7,5.7,0,0,0,1.3-.1c-2,0-4,0-6,.1l.8.8,3.8,3.8c1,1,2.1,2,3.1,3l.7.7c-1.2-1.3-2.5-2.5-3.7-3.8L6.5,236c1.1,0,2.1,0,3.2-.1h1.4a4.87,4.87,0,0,0,1.2-.1h.3c-2.1,0-4.2,0-6.3.1l1.3,1.3-1.3-1.3C7.7,235.8,9.2,235.7,10.7,235.7Z"/><polygon class="d" points="12.2 241.2 12.5 241.5 12.9 241.9 12.7 241.6 12.2 241.2"/><path class="d" d="M9.6,237.7h0l-.7-.7-.3-.3a3.75,3.75,0,0,0,1-.1H8.5A5.63,5.63,0,0,0,9.6,237.7Z"/><path class="d" d="M19.4,237c-2.9.1-5.6.2-8.2.2h-.4c1.8,0,3.6,0,5.2-.1.3,0,.8-.1,1.1-.1,1.5,0,3-.1,4.5-.1-.8,0-1.5.1-2.2.1Z"/><polygon class="f" points="7.5 322.5 1 329.5 14 329.5 7.5 322.5"/><polygon class="g" points="8.2 386.7 1.2 380.2 1.2 393.2 8.2 386.7"/><polygon class="g" points="55.1 473.8 48.1 467.4 48.1 480.4 55.1 473.8"/><polygon class="g" points="7.5 473.9 14.5 480.4 14.5 467.4 7.5 473.9"/><polygon class="g" points="27.8 390.2 34.2 383.2 21.2 383.2 27.8 390.2"/><polygon class="h" points="7.5 341.5 1 348.5 14 348.5 7.5 341.5"/><circle class="i" cx="65.2" cy="405.2" r="3"/><circle class="j" cx="85" cy="405.2" r="3"/><circle class="k" cx="104.7" cy="405.2" r="3"/><rect class="l" x="48.2" y="367.2" width="2" height="2"/><rect class="l" x="51.2" y="370.2" width="2" height="2"/><rect class="l" x="57.2" y="370.2" width="2" height="2"/><rect class="l" x="63.2" y="370.2" width="2" height="2"/><rect class="l" x="69.2" y="370.2" width="2" height="2"/><rect class="l" x="54.3" y="367.2" width="2" height="2"/><rect class="l" x="60.3" y="367.2" width="2" height="2"/><rect class="l" x="66.3" y="367.2" width="2" height="2"/><rect class="l" x="72.4" y="367.2" width="2" height="2"/><path class="j" d="M1.2,400.2v31H4.6a13.22,13.22,0,0,1,8.3-11.8v-1.2a6.8,6.8,0,1,1,7.6,0v1.2a13.22,13.22,0,0,1,8.3,11.8h3.4v-31Z"/><path class="m" d="M4.7,431.2H29a13.22,13.22,0,0,0-8.3-11.8v-1.2a6.8,6.8,0,1,0-7.6,0v1.2A13.31,13.31,0,0,0,4.7,431.2Z"/><rect class="h" x="61.3" y="340.2" width="1.9" height="14"/><rect class="n" x="64.2" y="341.2" width="10.1" height="8"/><rect class="o" x="61.3" y="320.3" width="1.9" height="14"/><rect class="p" x="64.2" y="321.3" width="10.1" height="8"/><rect class="q" x="81.3" y="320.3" width="14" height="14"/><path class="m" d="M84.5,329.7a1.4,1.4,0,1,0,1.4,1.4A1.43,1.43,0,0,0,84.5,329.7Zm-1.4-4v2a4.78,4.78,0,0,1,4.8,4.8h2A6.68,6.68,0,0,0,83.1,325.7Zm0-3.6v2a8.45,8.45,0,0,1,8.4,8.4h2A10.46,10.46,0,0,0,83.1,322.1Z"/><polygon class="r" points="23.6 347.3 22.9 350.5 26.1 349.8 23.6 347.3"/><rect class="r" x="24.89" y="344.38" width="5.1" height="3.5" transform="translate(-236.71 120.78) rotate(-45)"/><path class="r" d="M30.1,341.5a1.5,1.5,0,0,0-1.1.4l-.7.7,2.5,2.5.7-.7a2.1,2.1,0,0,0,.4-1.1A1.79,1.79,0,0,0,30.1,341.5Z"/><circle class="s" cx="108" cy="452" r="6.5"/><path class="m" d="M111.2,453.9h0l-1.9-1.9,1.9-1.9h0v-.3l-.9-.9c-.1-.1-.1-.1-.2,0H110l-1.9,1.9-1.9-1.9h-.3l-.9.9c-.1.1-.1.1,0,.2v.1h0l1.9,1.9-1.9,1.9h0v.3l.9.9c.1.1.1.1.2,0h.1l1.9-1.9,1.9,1.9h.3l.9-.9v-.3Z"/><circle class="s" cx="48.2" cy="347.1" r="6.5"/><path class="m" d="M51.4,349h0l-1.9-1.9,1.9-1.9h0v-.3l-.9-.9c-.1-.1-.1-.1-.2,0h-.1l-1.9,1.9L46.4,344h-.3l-.9.9c-.1.1-.1.1,0,.2v.1h0l1.9,1.9L45.2,349h0v.3l.9.9c.1.1.1.1.2,0h.1l1.9-1.9,1.9,1.9h.3l.9-.9V349Z"/><circle class="n" cx="48.2" cy="326.3" r="6.5"/><path class="m" d="M51.4,328.3h0l-1.9-1.9,1.9-1.9h0v-.3l-.9-.9c-.1-.1-.1-.1-.2,0h-.1l-2,1.8-1.9-1.9H46l-.9.9c-.1.1-.1.1,0,.2v.1h0l1.9,1.9-1.9,1.9h0v.3l.9.9c.1.1.1.1.2,0h.1l1.9-1.9,1.9,1.9h.3l.9-.9c.1,0,.1-.1.1-.2Z"/><path class="d" d="M20.1,121.8c.9,2.9,1.9,5.9,2.8,8.8h9.2v-1.7c-2.5,1.8-4.9,3.6-7.4,5.4-.3.2-.1,1.4,0,1.7,1,2.9,1.9,5.9,2.9,8.8v-1.7c-2.5-1.8-5-3.7-7.5-5.5-.4-.3-6.7,4.9-7.5,5.5v1.7c1-2.9,1.9-5.9,2.9-8.8a3.26,3.26,0,0,0,0-1.7c-2.5-1.8-4.9-3.6-7.4-5.4v1.7h9.2c1-2.9,1.9-5.8,2.8-8.8.2-.5-.1-1.4,0-1.6-.9,2.9-1.8,5.8-2.8,8.7-.2.6-8.2.1-9.2.1-.1,0-.2,1.6,0,1.7,2.5,1.8,4.9,3.6,7.4,5.4v-1.7c-1,2.9-1.9,5.9-2.9,8.8-.1.2.1,1.6,0,1.7,2.5-1.8,5-3.7,7.5-5.5.4-.3,6.7,4.9,7.5,5.5a9.48,9.48,0,0,0,0-1.7c-1-2.9-1.9-5.9-2.9-8.8v1.7c2.5-1.8,4.9-3.6,7.4-5.4.2-.1.1-1.7,0-1.7H23c-.7,0-2.6-7.8-2.9-8.8C20.2,120.5,19.9,121.4,20.1,121.8Z"/><path class="t" d="M173,133.9q4.5,0,9,.3v-4c-2.7,0-5.2,0-7.5.2-6,.3-3.8,1.6,2.3,2v.3C170.8,132.5,173.8,133.4,173,133.9Z"/><path class="t" d="M171,140.9c2.8,0,5.6,0,8.4.1.1-.2.1-.4-.6-.6-.9-.3-4.3,0-6.2-.1-.5,0-1.1-.1-1.6-.1v.7Z"/><path class="t" d="M171,144.1c2,0,3.9.1,5.9.1a9.63,9.63,0,0,0,2.7-.4c-2.8-.2-5.7-.4-8.6-.5v.8Z"/><path class="t" d="M180.7,141.7h-1.4c-.2-.2-.1-.4,0-.6-2.8-.1-5.5-.2-8.3-.2v2.4c3,0,5.8.1,8.7.3a1.7,1.7,0,0,1,.7.1,6.9,6.9,0,0,0,.8-.3C182.1,142.8,182.6,142.2,180.7,141.7Z"/><path class="d" d="M173,153.9q4.5,0,9,.3v-4c-2.7,0-5.2,0-7.5.2-6,.3-3.8,1.6,2.3,2v.3C170.8,152.5,173.8,153.4,173,153.9Z"/><path class="d" d="M171,160.9c2.8,0,5.6,0,8.4.1.1-.2.1-.4-.6-.6-.9-.3-4.3,0-6.2-.1-.5,0-1.1-.1-1.6-.1v.7Z"/><path class="d" d="M171,164.1c2,0,3.9.1,5.9.1a9.63,9.63,0,0,0,2.7-.4c-2.8-.2-5.7-.4-8.6-.5v.8Z"/><path class="d" d="M180.7,161.7h-1.4c-.2-.2-.1-.4,0-.6-2.8-.1-5.5-.2-8.3-.2v2.4c3,0,5.8.1,8.7.3a1.7,1.7,0,0,1,.7.1,6.9,6.9,0,0,0,.8-.3C182.1,162.8,182.6,162.1,180.7,161.7Z"/><path class="b" d="M180,180.5q-4.5,0-9-.3v3c2.7,0,5.2,0,7.5-.1,6-.3,3.8-1.2-2.3-1.5v-.3C182.2,181.4,179.2,180.8,180,180.5Z"/><path class="b" d="M182,172.7c-2.8,0-5.6,0-8.4-.1-.1.2-.1.3.6.4.9.2,4.3,0,6.2.1a8.6,8.6,0,0,1,1.6.1v-.5Z"/><path class="b" d="M182,170.3c-2,0-3.9-.1-5.9-.1a10.06,10.06,0,0,0-2.7.3c2.8.2,5.7.3,8.6.4v-.6Z"/><path class="b" d="M172.3,172.1h1.4c.2.1.1.3,0,.4,2.8.1,5.5.1,8.3.2v-1.8c-3,0-5.8-.1-8.7-.2h-.7a3.09,3.09,0,0,1-.8.2C170.9,171.2,170.4,171.7,172.3,172.1Z"/><path class="u" d="M61.7,128.5l-3-1.9c.1-.1,2.3-2.5,2.3-2.6l-.8-.5"/><path class="u" d="M53.7,144l-1.5-1,2.9-1.9c0-.1-.8-.5-.8-.5s4-.8,4.1-.9-3.8-2.2-3.7-2.3,11.3,3.8,11.4,3.5c0,0-16.9-10.2-16.7-10.5s15.3,5.8,15.4,5.7-10.6-6.5-10.6-6.6c.2-.3,12.1,4.1,12.2,3.9s-8.9-5.6-8.9-5.6,11.9,3.4,11.9,3.4-2.8-1.6-2.7-1.7"/><path class="u" d="M61.7,128.5l-3-1.9c.1-.1,2.3-2.5,2.3-2.6l-.8-.5"/><path class="u" d="M53.7,144l-1.5-1,2.9-1.9c0-.1-.8-.5-.8-.5s4-.8,4.1-.9-3.8-2.2-3.7-2.3,11.3,3.8,11.4,3.5c0,0-16.9-10.2-16.7-10.5s15.3,5.8,15.4,5.7-10.6-6.5-10.6-6.6c.2-.3,12.1,4.1,12.2,3.9s-8.9-5.6-8.9-5.6,11.9,3.4,11.9,3.4-2.8-1.6-2.7-1.7"/><path class="u" d="M61.7,128.5l-3-1.9c.1-.1,2.3-2.5,2.3-2.6l-.8-.5"/><path class="u" d="M53.7,144l-1.5-1,2.9-1.9c0-.1-.8-.5-.8-.5s4-.8,4.1-.9-3.8-2.2-3.7-2.3,11.3,3.8,11.4,3.5c0,0-16.9-10.2-16.7-10.5s15.3,5.8,15.4,5.7-10.6-6.5-10.6-6.6c.2-.3,12.1,4.1,12.2,3.9s-8.9-5.6-8.9-5.6,11.9,3.4,11.9,3.4-2.8-1.6-2.7-1.7"/><path class="d" d="M60.1,121.8c.9,2.9,1.9,5.9,2.8,8.8h9.2v-1.7c-2.5,1.8-4.9,3.6-7.4,5.4-.3.2-.1,1.4,0,1.7,1,2.9,1.9,5.9,2.9,8.8v-1.7c-2.5-1.8-5-3.7-7.5-5.5-.4-.3-6.7,4.9-7.5,5.5v1.7c1-2.9,1.9-5.9,2.9-8.8a3.26,3.26,0,0,0,0-1.7c-2.5-1.8-4.9-3.6-7.4-5.4v1.7h9.2c1-2.9,1.9-5.8,2.8-8.8.2-.5-.1-1.4,0-1.6-.9,2.9-1.8,5.8-2.8,8.7-.2.6-8.2.1-9.2.1-.1,0-.2,1.6,0,1.7,2.5,1.8,4.9,3.6,7.4,5.4v-1.7c-1,2.9-1.9,5.9-2.9,8.8-.1.2.1,1.6,0,1.7,2.5-1.8,5-3.7,7.5-5.5.4-.3,6.7,4.9,7.5,5.5a9.48,9.48,0,0,0,0-1.7c-1-2.9-1.9-5.9-2.9-8.8v1.7c2.5-1.8,4.9-3.6,7.4-5.4.2-.1.1-1.7,0-1.7H63c-.7,0-2.6-7.8-2.9-8.8C60.2,120.5,59.9,121.4,60.1,121.8Z"/><path class="v" d="M237.45,77.19l6-.65,2.29-4.93c.45-1,0-3.16,0-4.2,0-2.34.86-6.2-.09-8.33a5.35,5.35,0,0,1-4.14-2.67c-2-3.54-1.87.87-1.89,2.64q0,3.65-.07,7.3c0,1.61.74,5.77-.07,7.22Z"/><path class="v" d="M35.86,21.52a.77.77,0,0,0,.36,0,1.56,1.56,0,0,0,.51-.37c.66-.62,1.29-1.27,1.93-1.92l1.06-1.08c1.7-1.75,1-5,1-7.27l2.31-4-5.89,1L34.9,12.1a7.81,7.81,0,0,0,0,2.55c0,1,0,2,0,3a11.33,11.33,0,0,0,0,3A1.22,1.22,0,0,0,35.86,21.52Z"/><polygon class="v" points="160.4 94.64 166.32 91.64 164.47 87.67 170.46 88.14 172.55 88.57 172.81 95.64 160.4 94.64"/><path class="v" d="M126.3,73.18l16.3,2.26s8.91,1.75,12.7,6.23v-13h-29Z"/><path class="w" d="M127.3,69.63h27V80.35q0,1.17,0,2.33c0,.28-.1.76.12,1s1.1,0,1.37-.21c1-.82.51-3.57.51-4.75v-11h-31v13a12.5,12.5,0,0,0-.12,2.54,1.16,1.16,0,0,0,1.49.72c.83-.32.65-1.21.63-1.93,0-1.84,0-3.68,0-5.52Z"/><path class="v" d="M190.8,85.64h-1a13.6,13.6,0,0,0-4.22.74,10,10,0,0,1,6.22,9.26h9A10,10,0,0,0,190.8,85.64Z"/><polygon class="v" points="180.03 95.64 180.03 92.51 188.51 87.64 185.58 86.39 178.9 90.64 176.8 95.23 180.03 95.64"/><path class="w" d="M201.8,96.64h-26v-1c0-6.38,8.36-11,14-11h1a11,11,0,0,1,11,11Zm-23.9-2h21.85a9,9,0,0,0-8.94-8h-1C184.88,86.64,178.74,90.3,177.9,94.64Z"/><path class="v" d="M97.93,85.14h4.13a2,2,0,0,1,2,2v1a0,0,0,0,1,0,0H95.93a0,0,0,0,1,0,0v-1a2,2,0,0,1,2-2Z"/><path class="v" d="M108.35,85.14h4.13a2,2,0,0,1,2,2v1a0,0,0,0,1,0,0h-8.13a0,0,0,0,1,0,0v-1A2,2,0,0,1,108.35,85.14Z"/><path class="v" d="M152,85.14h4.13a2,2,0,0,1,2,2v1a0,0,0,0,1,0,0H150a0,0,0,0,1,0,0v-1a2,2,0,0,1,2-2Z"/><path class="v" d="M162.4,85.14h4.13a2,2,0,0,1,2,2v1a0,0,0,0,1,0,0H160.4a0,0,0,0,1,0,0v-1a2,2,0,0,1,2-2Z"/><path class="v" d="M118.76,85.14H145.7a2,2,0,0,1,2,2v1a0,0,0,0,1,0,0H116.76a0,0,0,0,1,0,0v-1A2,2,0,0,1,118.76,85.14Z"/><path class="w" d="M173.55,96.64H90.8v-7a3,3,0,0,1,3-3h76.75a3,3,0,0,1,3,3Zm-80.75-2c0,.2,12.77.08,13.75,0,1.55-.13,10.09,0,13.08,0l10.65,0c4.18,0,8.36,0,12.53,0,9.58.1,19.15,0,28.73,0v-5a1,1,0,0,0-1-1H160.27c-6.71,0-13.39-.61-20.11-.51-3.09.05-6.22.47-9.27.51-3.41,0-6.82,0-10.22,0H93.8a1,1,0,0,0-1,1Z"/><path class="w" d="M44.9,78.5H40c-3.34,0-6.06-3.09-6.06-6.89V12.73c0-3.8,2.72-6.89,6.06-6.89H44.9v2H40c-2.24,0-4.06,2.19-4.06,4.89V71.62c0,2.7,1.82,4.89,4.06,4.89H44.9Z"/><path class="v" d="M63.33,82.42c-2.46-5.23-14.92-2.94-14.92-2.94l-.33-2.29,15.25-3Z"/><path class="w" d="M63.8,87.76a1,1,0,0,0-.6-.11l-14.92,2a1,1,0,0,0-.38.13c-.78.46-1.46.88-2.08,1.27a11.43,11.43,0,0,1,1.82,1.23l1.1-.67,14.4-1.93a66.24,66.24,0,0,1,8.05,5H62.44c-3.17,0-7.87-.79-10.83.37.47,1.2,2.24,1.57,3.52,1.63,2.51.12,5.06,0,7.57,0H73.33a1,1,0,0,0,1-1C74.33,94.11,70.79,91.46,63.8,87.76Z"/><polygon class="w" points="47.41 91.79 47.41 76.7 49.41 76.7 49.41 89.5 62.33 87.77 62.33 73.21 64.33 73.21 64.33 89.52 47.41 91.79"/><path class="v" d="M218.2,82.42c2.46-5.23,14.92-2.94,14.92-2.94l.33-2.29-15.25-3Z"/><path class="w" d="M239.34,96.64H208.2a1,1,0,0,1-1-1c0-1.53,3.54-4.18,10.53-7.88a1,1,0,0,1,.6-.11l14.92,2a1,1,0,0,1,.38.13c7.46,4.43,7.23,5.29,7,6A1.25,1.25,0,0,1,239.34,96.64Zm0-2v0Zm-29,0c3.16,0,6.32-.06,9.47,0,4.12.08,8.17,0,12.28,0,1,0,4.54-.61,5.38,0-1.2-.88-3-2-4.67-3l-14.4-1.93A66.29,66.29,0,0,0,210.33,94.64Z"/><path class="w" d="M219.2,73.21h-2v5.34c0,1.25-.38,7.4.67,7.39C221.2,85.91,218.21,73.24,219.2,73.21Z"/><path class="w" d="M234.12,76.71h-2V82c0,1.12.63,6.58-.24,7.12-1.82,1.12,1.4,2.58,2.19.52.5-1.3,0-3.65,0-5Z"/><path class="x" d="M58.76,47.48a1.3,1.3,0,0,1,.4-.93,5.14,5.14,0,0,1,.62-.56,2,2,0,0,0,.29-.24q.13,2.56,3.15,2.56a12.53,12.53,0,0,0,5.56-1.63c.73-.36,3.7-1.86,3.19-3.06-.17-.39-.66-.4-1-.5l-1.8-.44L64,41.43l-2.7-.66a2.21,2.21,0,0,1-.9-.48q-.79-.62-.79-1.13,0-1.94,2.51-3.52A21.75,21.75,0,0,1,69.58,33a13.42,13.42,0,0,1,1.56-.23,2.38,2.38,0,0,0,.47.1,5.65,5.65,0,0,1,.65.13q.79.2.67.73,0,1-3.33,1.52a29.05,29.05,0,0,0-5.37,1.18,4.84,4.84,0,0,0-1.54,1,1.81,1.81,0,0,0-.5,1.21c0,.09.2.2.59.31l1.41.41,2.13.63,3.9,1.2,2.31.73c1,.33,1.84.34,1.84,1.65a3.87,3.87,0,0,1-1.59,2.87,14.79,14.79,0,0,1-5,2.62,14.27,14.27,0,0,1-4.2.87,6.23,6.23,0,0,1-2.49-.51,7.7,7.7,0,0,1-1.77-1A1.32,1.32,0,0,1,58.76,47.48Z"/><path class="x" d="M76.42,45.21a9.51,9.51,0,0,1-.62-3.58,10.27,10.27,0,0,1,.6-3.65,8.5,8.5,0,0,1,1.65-2.75,7.32,7.32,0,0,1,5.59-2.39,9.15,9.15,0,0,1,5.79,1.77A7,7,0,0,1,92,40.43q0,4.68-2,6.9t-6.11,2.23Q78.16,49.55,76.42,45.21Zm1.49-4.14q0,6.65,6.1,6.65a6.41,6.41,0,0,0,4.87-2,7,7,0,0,0,1.87-5.1,5.14,5.14,0,0,0-2.23-4.51,8.06,8.06,0,0,0-4.79-1.35,5.51,5.51,0,0,0-4.08,1.83A6.22,6.22,0,0,0,77.9,41.07Z"/><path class="x" d="M95.23,45.27Q93.8,45,93.8,44.54a1.31,1.31,0,0,1,.49-.84l1-1a17.81,17.81,0,0,0-.46-3.79q-.46-2.1-.67-3.25a12.16,12.16,0,0,1-.21-2.11,1.79,1.79,0,0,1,.27-1.21,1.1,1.1,0,0,1,.78-.25,1,1,0,0,1,.67.16.77.77,0,0,1,.21.38,2.82,2.82,0,0,1,.06.48,1.76,1.76,0,0,0,.09.48.71.71,0,0,0,.79.54,22.34,22.34,0,0,0,3.44-.32l3.41-.61c1-.18,3-.89,4-.62.18,0,.26.25.31.43.32,1.1.68,1.42-.46,1.68a19.14,19.14,0,0,1-2.8.17c-1.53.11-3.06.25-4.58.48-.65.1-3.66.35-3.66,1.43a18.4,18.4,0,0,0,.23,3.14,14.9,14.9,0,0,0,.35,1.65q.11.34.27.34a16,16,0,0,0,3-.28c.4-.07,2.2-.74,2.48-.33a.63.63,0,0,1,.08.27l.11.85a.32.32,0,0,1-.29.42,16.68,16.68,0,0,1-2.37.47q-2.54.39-2.95,1l-.28,5.52a.85.85,0,0,1-.64.31l-.95-.08h-.26Z"/><path class="x" d="M122.61,36.12l-2.28-.06a12.81,12.81,0,0,0-2.08.2q-.05,1.1-.21,2.84-.54,6.2-.54,8t.05,2.61l-2.41.2L115.94,36l-5.46-.34q-.21,0-.32-.37a2.27,2.27,0,0,1-.12-.68,1.29,1.29,0,0,1,.23-.68.65.65,0,0,1,.54-.37q1.87.08,3.77.28,3.51.34,6,.34l1.59-.06a20.71,20.71,0,0,0,3.72-.45q.41.08.51,1.41,0,.28,0,.45A12.54,12.54,0,0,1,122.61,36.12Z"/><path class="x" d="M146.91,45.27a148.3,148.3,0,0,0,3-16.67q1.61,0,1.69,1.1,0,.34,0,.48a8.14,8.14,0,0,1-.09,1q-.1.83-.29,2.32t-.47,3.46q-.28,2-.64,4.11-.87,5-1.79,8.51-.92.7-1.44.23a2.34,2.34,0,0,1-.41-.69l-.41-1a19.93,19.93,0,0,1-1.23-2.54q-.9-2.06-1.45-3.27T142.32,40a6.5,6.5,0,0,0-2-2.73,64,64,0,0,0-3.28,8.65q-.41,1.24-.74,2.3t-.56,1.7l-1.59-.08-6.41-16.28a.81.81,0,0,1-.05-.28.52.52,0,0,1,.09-.28.77.77,0,0,1,.32-.25,2.39,2.39,0,0,1,.87-.17.89.89,0,0,1,.63.18,1.34,1.34,0,0,1,.31.46,4,4,0,0,1,.19.62,5.9,5.9,0,0,0,.29.87l.64,1.58q.42,1,.91,2.2l1,2.3q.49,1.14.92,2.1A15.49,15.49,0,0,0,135,45.27q3-8.06,3.67-9.56t.87-1.84q.28-.48.44-.48,1.1,0,3.72,5.41.72,1.44,1.33,2.76A40.83,40.83,0,0,0,146.91,45.27Z"/><path class="x" d="M166.1,39.64h.72a4,4,0,0,1,.83.08q.4.08.4.62.18,1.13-1.2,1.1l-.7-.06a3.57,3.57,0,0,0-.53,0c-.14,0-.2.06-.18.15q.26.82.55,1.83t.65,2A15,15,0,0,0,168.38,49a4.19,4.19,0,0,1-1,1,5.07,5.07,0,0,1-.62.39.08.08,0,0,1-.06,0L163.08,42l-7,1.89L155.83,45a13.19,13.19,0,0,1-1.67,4.51q-.15.28-.64.06-.82-.34-.82-.56s.18-.58.54-1.63l1.09-3.2,1.15-3.39,1.14-3.38,1-2.89q.44-1.28.62-1.86a6.9,6.9,0,0,0,.24-1,3.16,3.16,0,0,1,.19-.75q.26-.65,1.28-.65a4.75,4.75,0,0,1,1.7,1.76,14.31,14.31,0,0,1,1,2.32q.42,1.24.83,2.51a9.34,9.34,0,0,0,1.1,2.31.81.81,0,0,0,.69.42Zm-6.41-6.08a14,14,0,0,1-.92,3.52q-.72,1.8-1.15,2.8t-.74,1.84a11,11,0,0,0,4.28-1.13q.64-.31,1.23-.56Q161.18,34.37,159.7,33.55Z"/><path class="x" d="M171.87,33.22q1.41-1.49,5.1-1.49a12.7,12.7,0,0,1,3.87.51,8.76,8.76,0,0,1,2.35,1.07,1.56,1.56,0,0,1,.78,1.24q0,1.55-3.28,3.07-.49.25-2.55,1l-2.78,1.06a12.2,12.2,0,0,0-2.08,1,.32.32,0,0,0,.1.24,3.58,3.58,0,0,0,.49.34L175,42q.77.44,2.13,1.25,4,2.42,8.33,5.18l.54.46a.86.86,0,0,1,.33.65.55.55,0,0,1-.21.49,1.5,1.5,0,0,1-.49.21,2.45,2.45,0,0,1-.59.07h-.51a5.46,5.46,0,0,1-2.14-1.21L179.6,47q-1.19-.9-2.42-1.75a21.73,21.73,0,0,0-4.59-2.68V49q0,.56-.87.56h-.28a.84.84,0,0,1-.79-.59,10.28,10.28,0,0,1-.36-3.32l.08-5.66a70.77,70.77,0,0,0-.33-7.32q.62-1.15,1.51.08Zm8.66.34-1.67,0q-5.79,0-6.66,1.46a1.8,1.8,0,0,0-.26,1A9.35,9.35,0,0,0,172,37a2.93,2.93,0,0,0,.59,1.66.87.87,0,0,0,.27,0,4.18,4.18,0,0,0,.72-.11,13.8,13.8,0,0,0,1.41-.41q.88-.3,1.88-.72t1.92-.87q2.9-1.44,2.9-2.34Q181.69,33.78,180.53,33.55Z"/><path class="x" d="M196.6,32.06a10.19,10.19,0,0,1,3.41.37v1.38a13.38,13.38,0,0,1-1.9.13l-2.56,0a28.56,28.56,0,0,0-5.18.42,17,17,0,0,0-.41,3.07q0,.82.05,1.27.1,1.1.1,2.59a27.08,27.08,0,0,0,4-.34c.83-.13,3-.91,3.58-.11a2.47,2.47,0,0,1,.34,1.07.33.33,0,0,1-.05.3.33.33,0,0,1-.2.06c-2.5.18-5,.59-7.47.94l.15,4.62a51.7,51.7,0,0,0,5.19-.27,39.12,39.12,0,0,1,5.84-.05.26.26,0,0,1,.3.29c.07.49,0,1.12-.41,1.28a1.07,1.07,0,0,1-.35,0c-2.65,0-5.27.37-7.9.37l-4.78.42.1-18a8.9,8.9,0,0,0,2.46.23Z"/><path class="x" d="M222.65,32.06a10.19,10.19,0,0,1,3.41.37v1.38a13.38,13.38,0,0,1-1.9.13l-2.56,0a28.56,28.56,0,0,0-5.18.42,17,17,0,0,0-.41,3.07q0,.82.05,1.27.1,1.1.1,2.59a27.08,27.08,0,0,0,4-.34q2.24-.34,3.47-.49a20.35,20.35,0,0,1,2.54-.15v1.55l-9.82,1.35.15,4.62a51.7,51.7,0,0,0,5.19-.27l4-.39q1.37-.13,2.91-.13a2,2,0,0,1-.31,1.07q-.62.9-1.1.54-4.51.54-8.06.84l-4.78.42.1-18a8.9,8.9,0,0,0,2.46.23Z"/><path class="x" d="M244.72,40.47q0,8.17-.64,9.57l-1.87-.16a78,78,0,0,0-4.74-7.18l-2.6-3.63q-1.29-1.8-2.37-3.58a56.19,56.19,0,0,0-.51,9.57q0,2.74-.1,4.62a1.49,1.49,0,0,1-1.06.48,1.9,1.9,0,0,1-.81-.12.42.42,0,0,1-.23-.4q0-.28.06-.89t.15-2q.09-1.42.17-3,.2-4.14.21-7.14t-.05-4.93q.56-.54.87-.78a.54.54,0,0,1,.69,0,4.57,4.57,0,0,1,1,1.1q.6.85,1.7,2.51Q238.33,40.12,242,45l.49-13.39a2.1,2.1,0,0,1,.56-.74,1.25,1.25,0,0,1,.74-.2q.9,0,.9,1.72l0,1Z"/><path class="x" d="M258.3,51.33V46.17q-2.44,1.83-3.38,2.42A7.79,7.79,0,0,1,251,49.92a4.45,4.45,0,0,1-3.43-1.61,5.59,5.59,0,0,1-1.46-3.8,18.22,18.22,0,0,1,.87-4.56,12.61,12.61,0,0,1,5.1-7.18,7.29,7.29,0,0,1,4.08-1.15h.1l.69,0q1.18,0,1.08,1a9.38,9.38,0,0,0-3.84,1,10.15,10.15,0,0,0-3.11,2.49A11.87,11.87,0,0,0,249,39.78a12.39,12.39,0,0,0-.76,4.25,4.11,4.11,0,0,0,1,3.13,3.71,3.71,0,0,0,2.64,1,9,9,0,0,0,3.84-1.32,6.76,6.76,0,0,0,2.33-1.92,1.74,1.74,0,0,0,.38-1.07V39.64a22.11,22.11,0,0,0-3.58.65l-3.24.73-.31-.18a.38.38,0,0,1-.21-.3q-.05-.42,1.13-1.3a22.22,22.22,0,0,1,3.38-.66l3.95-.63,1.41-.23a1.65,1.65,0,0,0,.64,0,2.74,2.74,0,0,1,.72,0q.82,0,.77,1l-2.13,1a28.06,28.06,0,0,0-.49,6.48l.05,4.2v1a3.08,3.08,0,0,1-1.49.42Q258.4,51.75,258.3,51.33Z"/><path class="x" d="M266.45,49.5q0,.48-.62.48a2,2,0,0,1-1.1-.48,12.67,12.67,0,0,1-.31-3.63q0-2.87.05-4.75t.1-3.45q.15-3.44.15-3.63a2.45,2.45,0,0,1,1.23-.48.43.43,0,0,1,.49.48Z"/><path class="x" d="M282.8,44.17a35,35,0,0,1-.16,5.27.8.8,0,0,1-.12.43c-.26.34-1,.08-1.35,0a80.08,80.08,0,0,0-4.82-7.07l-2.73-3.74c-.86-1.18-1.94-2.77-2.65-3.93a67.26,67.26,0,0,0-.41,10q0,2.69-.1,4.53a1.5,1.5,0,0,1-1.06.47,1.93,1.93,0,0,1-.81-.12.41.41,0,0,1-.23-.4q0-.28.06-.87t.15-2q.09-1.4.17-3,.2-4.06.21-7c0-.64-.46-6.87,1.51-5.59a4.51,4.51,0,0,1,1,1.08q.6.83,1.7,2.46,3.77,5.51,7.41,10.33L281.06,32a2.06,2.06,0,0,1,.56-.72,1.27,1.27,0,0,1,.74-.2q.9,0,.9,1.69l0,1C283.25,34.77,282.75,43.42,282.8,44.17Z"/><path class="x" d="M293.6,32.06a6.05,6.05,0,0,0,1.58,0c.5-.14,1-.24,1.5-.33a.14.14,0,0,1,.12,0,.13.13,0,0,1,0,.07,5.06,5.06,0,0,1,.07,1.81.2.2,0,0,1,0,.1.2.2,0,0,1-.08.05,4.46,4.46,0,0,1-1.67.2l-2.56,0a28.56,28.56,0,0,0-5.18.42,17,17,0,0,0-.41,3.07q0,.82.05,1.27.1,1.1.1,2.59a27.08,27.08,0,0,0,4-.34c.4-.06.79-.13,1.19-.18.23,0,.6.09.78-.07a4.42,4.42,0,0,1,.18,1.25c0,.71-1.11.59-1.62.66l-2.12.29-2.21.3.15,4.62a51.7,51.7,0,0,0,5.19-.27l4-.39q1.37-.13,2.91-.13a2,2,0,0,1-.31,1.07q-.62.9-1.1.54-4.51.54-8.06.84l-4.78.42.1-18a8.9,8.9,0,0,0,2.46.23Z"/><path class="x" d="M310.21,32.13a10.19,10.19,0,0,1,3.39.5L313.55,34a13.38,13.38,0,0,1-1.9.05L309.09,34a28.56,28.56,0,0,0-5.19.21,17,17,0,0,0-.53,3.05q0,.82,0,1.27.06,1.1,0,2.59a27.08,27.08,0,0,0,4-.18l2.34-.25c.26,0,.52-.15.66.11a2.34,2.34,0,0,1,.05,1.11c0,.42-.08.52-.49.53-1,0-1.93.15-2.89.25-.21,0-3.55.29-3.55.35l0,4.62a51.7,51.7,0,0,0,5.2-.06l4-.23c.71,0,1.58-.31,1.6.63,0,.41.23.84,0,1.19a.25.25,0,0,1-.08.09.34.34,0,0,1-.23,0,12.09,12.09,0,0,0-1.92,0c-1,0-1.91-.07-2.89,0l-3.16.17-4.79.23.2-4.47.39-8.45.12-2.62c0-.34,0-.67,0-1a1.48,1.48,0,0,1,0-.55c.16-.29.75-.46,1-.55a4.61,4.61,0,0,1,1.43,0Z"/><path class="x" d="M318.28,33.22q1.41-1.49,5.1-1.49a12.7,12.7,0,0,1,3.87.51,8.76,8.76,0,0,1,2.35,1.07,1.56,1.56,0,0,1,.78,1.24q0,1.55-3.28,3.07-.49.25-2.55,1l-2.78,1.06a12.2,12.2,0,0,0-2.08,1,.32.32,0,0,0,.1.24,3.58,3.58,0,0,0,.49.34l1.15.68q.77.44,2.13,1.25,4,2.42,8.33,5.18l.54.46a.86.86,0,0,1,.33.65.55.55,0,0,1-.21.49,1.5,1.5,0,0,1-.49.21,2.45,2.45,0,0,1-.59.07H331a5.46,5.46,0,0,1-2.14-1.21L326,47q-1.19-.9-2.42-1.75A21.73,21.73,0,0,0,319,42.54V49q0,.56-.87.56h-.28A.84.84,0,0,1,317,49a10.28,10.28,0,0,1-.36-3.32l.08-5.66a70.77,70.77,0,0,0-.33-7.32q.62-1.15,1.51.08Zm8.66.34-1.67,0q-5.79,0-6.66,1.46a1.8,1.8,0,0,0-.26,1,9.35,9.35,0,0,0,.05,1.06,2.93,2.93,0,0,0,.59,1.66.87.87,0,0,0,.27,0,4.18,4.18,0,0,0,.72-.11,13.8,13.8,0,0,0,1.41-.41q.88-.3,1.88-.72t1.92-.87q2.9-1.44,2.9-2.34Q328.09,33.78,326.94,33.55Z"/><path class="x" d="M336.66,49.42q0,.55-.62.55a1.84,1.84,0,0,1-1.1-.55,16.69,16.69,0,0,1-.31-4.18q0-3.3.05-5.46t.1-4q.15-4,.15-4.18a2.27,2.27,0,0,1,1.23-.55q.49,0,.49.55Z"/><path class="x" d="M353.1,39.86c-.18,2.43-.36,4.86-.39,7.3,0,.55.32,2.49-.25,2.84a2.55,2.55,0,0,1-1.44-.12,79.81,79.81,0,0,0-4.74-7.32l-2.6-3.7q-1.29-1.84-2.37-3.65a58.5,58.5,0,0,0-.51,9.77q0,2.8-.1,4.72a1.47,1.47,0,0,1-1.06.49,1.86,1.86,0,0,1-.81-.12.43.43,0,0,1-.23-.41q0-.29.06-.91t.15-2.07q.09-1.45.17-3.07.2-4.22.21-7.28t-.05-5q.56-.55.87-.8a.54.54,0,0,1,.69,0,9.21,9.21,0,0,1,1,1.44q.6.86,1.7,2.57,3.77,5.73,7.41,10.75l.49-14a2.14,2.14,0,0,1,.56-.75,1.23,1.23,0,0,1,.74-.21q.9,0,.9,1.75C353.47,34.67,353.29,37.26,353.1,39.86Z"/><path class="x" d="M367.4,50.05a.38.38,0,0,1-.27-.2,4.56,4.56,0,0,1,0-1.6V46.17q-2.43,1.83-3.38,2.42a7.8,7.8,0,0,1-3.87,1.32,4.45,4.45,0,0,1-3.43-1.61,5.59,5.59,0,0,1-1.46-3.8,18.22,18.22,0,0,1,.87-4.56,12.61,12.61,0,0,1,5.1-7.18A7.29,7.29,0,0,1,365,31.61h.1l.69,0q1.18,0,1.08,1a9.39,9.39,0,0,0-3.85,1,10.15,10.15,0,0,0-3.11,2.49,11.85,11.85,0,0,0-2.08,3.65,12.39,12.39,0,0,0-.76,4.25,4.11,4.11,0,0,0,1,3.13,3.71,3.71,0,0,0,2.64,1,9,9,0,0,0,3.85-1.32,6.76,6.76,0,0,0,2.33-1.92,1.75,1.75,0,0,0,.38-1.07V39.64a22.09,22.09,0,0,0-3.58.65l-3.24.73-.31-.18a.37.37,0,0,1-.21-.3q-.05-.42,1.13-1.3a22.22,22.22,0,0,1,3.38-.66l3.95-.63,1.41-.23a1.65,1.65,0,0,0,.64,0,2.75,2.75,0,0,1,.72,0q.82,0,.77,1l-2.13,1a28.14,28.14,0,0,0-.49,6.48l0,1.45c0,.49.27,1.88-.16,2.23-.19.15-.46.07-.71.08S367.73,50.12,367.4,50.05Z"/><path class="v" d="M73.8,54.25c-.47.89-.11,2.81-.11,3.55q0,2.49,0,5L47.7,70V14.75l26,1.44c.06,0,0,7.13,0,7.54,0,1-.53,2.74.22,3.61a1,1,0,0,0,1.6-.08c.36-.5.18-1.45.18-2q0-4.36,0-8.71v-.34a2,2,0,0,0-1.89-2l-26-1.44H47.7a2,2,0,0,0-2,2q0,3.41,0,6.82c0,2.52,0,5,0,7.56s.05,9.13.13,10.1c.26,3.34-.13,6.93-.13,10.31V70a2,2,0,0,0,2.54,1.93l26-7.22a2,2,0,0,0,1.46-1.93V54.18c-.49,0-.75-.46-1.28-.39A.8.8,0,0,0,73.8,54.25Z"/><path class="w" d="M79.58,54.43c0-.93,1-1.2,1.67-.66s.45,1.79.45,2.6v9.15a5,5,0,0,1-3.79,4.85l-32,8a5,5,0,0,1-1.22.15,5,5,0,0,1-5-5V10.84a5,5,0,0,1,5.25-5l9.15.46,4.57.23c1.25.07,2.44.39,3.72.4,4.61.07,9.2.24,13.8.47l.76,0a5,5,0,0,1,4.75,5c0,5-.18,10.09-.29,15.13-.39,0-.63.45-1.08.33-.78-.2-.64-1.22-.64-1.83V12.44a3,3,0,0,0-2.85-3l-32-1.6h-.15a3,3,0,0,0-3,3c0,11.19.12,22.41-.18,33.55-.09,3.14.5,6.13.23,9.28s0,6.6,0,9.85v10a3,3,0,0,0,3.73,2.91l32-8a3,3,0,0,0,2.27-2.91V56C79.7,55.48,79.6,55,79.58,54.43Z"/><path class="w" d="M189.44,54.25a5.09,5.09,0,0,0-.14,2.07v6.31a5,5,0,0,1-5,5h-88a5,5,0,0,1-5-5v-4.5a16.54,16.54,0,0,0-.11-4c-.08-.31-.21-.67-.51-.75a.71.71,0,0,0-.53.1c-1,.59-.88,1.88-.87,2.88q0,2.16,0,4.32v2a7,7,0,0,0,7,7h88a7,7,0,0,0,7-7V55.52c0-.75.21-1.84-.87-1.89a1,1,0,0,0-.82.35A1.16,1.16,0,0,0,189.44,54.25Z"/><path class="w" d="M89.53,27.32a1.07,1.07,0,0,0,.67.34c1.84.3,1.09-2.79,1.09-3.82V14.63a5,5,0,0,1,5-5h88a5,5,0,0,1,5,5V26.38a5.59,5.59,0,0,0,0,.93c.12.67,1.18.85,1.82.91a.3.3,0,0,0,.15,0,11.94,11.94,0,0,0,0-2.74V14.63a7,7,0,0,0-7-7h-88a7,7,0,0,0-7,7c0,3.62.14,7.24,0,10.85C89.26,26.1,89.15,26.87,89.53,27.32Z"/><path class="v" d="M97,27.23c.42-.4.29-1.07.29-1.6v-10h86v9.18c0,.94-.32,2.48.46,3.14A.28.28,0,0,0,184,28a.45.45,0,0,0,.16-.09c.34-.21.78,0,1.07-.4a1.46,1.46,0,0,0,.17-1c0-1.23,0-2.46,0-3.69,0-2.42-.05-4.84-.05-7.26a2,2,0,0,0-2-2H154.68c-2.18,0-4.31.42-6.46.32-2.36-.12-9-.49-9.9-.4-9.27.86-18.94.08-28.26.08H97.3a2,2,0,0,0-2,2v9.68A3.91,3.91,0,0,0,95.4,27,1.07,1.07,0,0,0,97,27.23Z"/><path class="v" d="M183.4,54.24a1,1,0,0,0-.1.45c0,.84,0,1.7,0,2.55v4.39h-7.66c-2.7,0-5.41.09-8.1,0-2.2-.08-4.21.58-6.41.52-1.74-.05-3.46-.38-5.19-.56a38.85,38.85,0,0,0-6.23,0c-17.34,1-35,.05-52.42.05v-4c0-.86.05-1.75,0-2.61,0-.49,0-.59-.42-.83a1.36,1.36,0,0,0-1.43.1c-.23.24-.15.6-.15.92,0,.87,0,1.74,0,2.6v3.85a2,2,0,0,0,2,2h86a2,2,0,0,0,2-2c0-1.67,0-3.34.05-5a7.7,7.7,0,0,0,0-2.36c-.19-.46-.9-.46-1.31-.38S183.51,54,183.4,54.24Z"/><path class="v" d="M206.61,27.27c.51-.43.27-1.63.27-2.23q0-1.58,0-3.15c0-1.76-.07-3.54,0-5.31a1.79,1.79,0,0,1,0-.38l26-1.44v11.4c0,.71,0,1.21.93,1.26.61,0,1,0,1.07-.58,0-.32,0-.64,0-1V17.21q0-1.23,0-2.46a2,2,0,0,0-2-2h-.11l-26,1.44a2,2,0,0,0-1.89,2q0,5,0,10.06c0,.54-.15,1.09.56,1.22a2.22,2.22,0,0,0,.85-.06A.66.66,0,0,0,206.61,27.27Z"/><path class="v" d="M235,53.86c.25.62-.13,1.46-.13,2.09q0,.65,0,1.3V70a2,2,0,0,1-2.54,1.93l-26-7.22a2,2,0,0,1-1.46-1.93v-7a7.41,7.41,0,0,1,.07-2.51,2.12,2.12,0,0,1,.18-.34.27.27,0,0,1,.09-.1l.1,0a1.91,1.91,0,0,1,1.06.13c.62.3.53,1,.68,1.53a8.53,8.53,0,0,1,0,2.52c-.09,1.93-.22,3.86-.22,5.79,0,0,4.29,1.44,4.74,1.61,4.16,1.56,8.72,2.13,13,3.32L232.9,70V57c0-.56-.27-3,.24-3.24a1.5,1.5,0,0,1,.59-.07A4.27,4.27,0,0,1,235,53.86Z"/><path class="w" d="M238.84,54.17a9.6,9.6,0,0,0,.05,1.94v17.4a3,3,0,0,1-3.73,2.91l-32-8a3,3,0,0,1-2.27-2.91v-8.8a7.36,7.36,0,0,0,0-2.18c-.17-.43-1-.58-1.44-.59-.66,0-.56.31-.55.83,0,1.19,0,2.39,0,3.58v7.16a5,5,0,0,0,3.79,4.85l32,8a5,5,0,0,0,1.22.15,5,5,0,0,0,5-5q0-3.17,0-6.35V56.81c0-.87,0-1.76,0-2.62,0-.23-1.74-.51-2-.25A.6.6,0,0,0,238.84,54.17Z"/><path class="w" d="M200.69,27.24c.18-.1.21-.24.2-.6s0-.64,0-1V12.44c0-3.3,3.44-3,5.69-3,3.13,0,6.44-.49,9.61-.64l9.06-.45,10.49-.52a3,3,0,0,1,3.15,3V25.4c0,.43-.18,1.4.05,1.75s1,.51,1.44.56c.77.09.54-.25.5-.84s0-1.29,0-1.92V19.13q0-4.15,0-8.29a5,5,0,0,0-5.25-5l-32,1.6a5,5,0,0,0-4.75,5q0,4.67,0,9.35c0,1,0,2-.08,3a8.81,8.81,0,0,0,.1,2.78.27.27,0,0,0,.07.14.28.28,0,0,0,.19,0h.5a.37.37,0,0,0,.3-.09s0-.11.08-.16a.42.42,0,0,1,.23-.14A2.61,2.61,0,0,0,200.69,27.24Z"/><path class="w" d="M244.83,54.24c-.41.94-.14,2.81-.14,3.53V71.62c0,2.7-1.82,4.89-4.06,4.89H235.7v2h4.94c3.34,0,6.06-3.09,6.06-6.89V67.53q0-3.8,0-7.6,0-1.9,0-3.8c0-1,.36-2.5-1.1-2.46a1.11,1.11,0,0,0-.32.05A.87.87,0,0,0,244.83,54.24Z"/><path class="w" d="M246.7,23.43q0-5.35,0-10.7c0-3.8-2.72-6.89-6.06-6.89H235.7v2h4.94c2.24,0,4.06,2.19,4.06,4.89V26.79c0,.79.34,1,1,1.47.09.07.2.14.3.08.73-.44.64-1.36.66-2.09C246.68,25.31,246.7,24.37,246.7,23.43Z"/><path class="m" d="M49.11,81.12c-.07,1.43,0,2.87,0,4.3A9.18,9.18,0,0,1,48.72,89a6.37,6.37,0,0,1-1.85,2.71c-1.81,1.6-4.74,1.55-7,1.61-2.86.07-5.69-.15-8.55-.16-2.1,0-4.18.39-6.28.21a8.17,8.17,0,0,1-4.75-1.85,5.23,5.23,0,0,1-1.77-2.87c-.23-1.3.05-3.13-1-4.15-.85-.82-2.33-.63-3.4-.63H10.58a6.51,6.51,0,0,1-6.5-6.5V67.26a6.51,6.51,0,0,1,6.5-6.5h4.53v2.87H10.44a3.5,3.5,0,0,0-3.5,3.5c0,1.85,0,3.7,0,5.55s.16,3.62.25,5.44a2.29,2.29,0,0,0,.88,2,3.69,3.69,0,0,0,2.33.89h5v.24c0,.42.3.9.71.85a.78.78,0,0,0,.43-.23c.91-.86,1-2.51,1.07-3.65.48-4.57.43-9.09.59-13.67V56s0,0,0-.06a.42.42,0,0,1,.17-.29.41.41,0,0,1,.2-.09H33.66c2.47,0,4.93-.35,7.4-.26s4.76.26,7.18.26h.44l.11,0a.46.46,0,0,1,.19.12.42.42,0,0,1,.11.2.52.52,0,0,1,0,.15v.52q0,4.08,0,8.17a49.92,49.92,0,0,0,.09,5.17A43.39,43.39,0,0,1,49,75.59C48.95,77.43,49.19,79.3,49.11,81.12Z"/><path class="d" d="M52.2,68q0-4.22,0-8.44V56.16c0-.08,0-.17,0-.35a3.52,3.52,0,0,0-.17-.91,3.56,3.56,0,0,0-2.65-2.37,3.87,3.87,0,0,0-.46-.06H18.68A3.55,3.55,0,0,0,15.11,56v.94a1.69,1.69,0,0,1-.35.41c-.52.42-1.46.26-2.1.29-2.84.11-5.52.34-7.84,2.13a9.56,9.56,0,0,0-3.68,6.42,62.82,62.82,0,0,0-.06,7.08,20.9,20.9,0,0,0,0,4A15.42,15.42,0,0,0,3.4,83.12c.21.29.44.57.66.85a7.64,7.64,0,0,0,1.48,1.41,7.07,7.07,0,0,0,2.3,1.1,10.52,10.52,0,0,0,2.74.35h4.5c.26,3.22,1.76,6.48,4.54,8.12s6.15,1.42,9.35,1.39c7.36-.05,20.44,2.65,22.91-7a9.85,9.85,0,0,0,.33-2.47v-2.1C52.21,82,52.21,70,52.2,68ZM15.3,78H10a.53.53,0,0,1-.5-.5c-.18-1.27-.24-5.78-.27-6.84,0-.59,0-1.92-.09-2.5a3.39,3.39,0,0,1,.14-1.73,1.1,1.1,0,0,1,.66-.69,49.05,49.05,0,0,1,5.19.1c0,.49,0,4.42,0,4.43C15.12,72.78,15.2,75.38,15.3,78Zm33.81,3.16c-.07,1.43,0,2.87,0,4.3A9.18,9.18,0,0,1,48.72,89a6.37,6.37,0,0,1-1.85,2.71c-1.81,1.6-4.74,1.55-7,1.61-2.86.07-5.69-.15-8.55-.16-2.1,0-4.18.39-6.28.21a8.17,8.17,0,0,1-4.75-1.85,5.23,5.23,0,0,1-1.77-2.87c-.23-1.3.05-3.13-1-4.15-.85-.82-2.33-.63-3.4-.63H10.58a6.51,6.51,0,0,1-6.5-6.5V67.26a6.51,6.51,0,0,1,6.5-6.5h4.53v2.87H10.44a3.5,3.5,0,0,0-3.5,3.5c0,1.85,0,3.7,0,5.55s.16,3.62.25,5.44a2.29,2.29,0,0,0,.88,2,3.69,3.69,0,0,0,2.33.89h5v.24c0,.42.3.9.71.85a.78.78,0,0,0,.43-.23c.91-.86,1-2.51,1.07-3.65.48-4.57.43-9.09.59-13.67V56s0,0,0-.06a.42.42,0,0,1,.17-.29.41.41,0,0,1,.2-.09H33.66c2.47,0,4.93-.35,7.4-.26s4.76.26,7.18.26h.44l.11,0a.46.46,0,0,1,.19.12.42.42,0,0,1,.11.2.52.52,0,0,1,0,.15v.52q0,4.08,0,8.17a49.92,49.92,0,0,0,.09,5.17A43.39,43.39,0,0,1,49,75.59C48.95,77.43,49.19,79.3,49.11,81.12Z"/><path class="y" d="M43.66,22.66H24.49a2.8,2.8,0,0,0,0,5.61H43.66a2.8,2.8,0,1,0,0-5.61Z"/><path class="y" d="M31.67,35.23a3.43,3.43,0,0,0-3.43-3.43H11.75a3.43,3.43,0,0,0,0,6.87H28.23A3.43,3.43,0,0,0,31.67,35.23Z"/><path class="y" d="M39.6,41.63H29.29a3.08,3.08,0,0,0,0,6.17H39.6a3.08,3.08,0,0,0,0-6.17Z"/><path class="v" d="M40.71,71.88c-.13,1.85-.26,3.7-.22,5.55.08,3.84,1.34,8.34-.49,12a9.51,9.51,0,0,1-3.82,3.85c1.22,0,2.44.06,3.67,0,2.26-.06,5.2,0,7-1.61A6.37,6.37,0,0,0,48.72,89a9.17,9.17,0,0,0,.38-3.54c0-1.43-.06-2.87,0-4.3.09-1.83-.16-3.69-.1-5.53a43.38,43.38,0,0,0,.19-5.68,50,50,0,0,1-.09-5.17q0-4.08,0-8.17v-.52a.53.53,0,0,0,0-.15.42.42,0,0,0-.11-.2.46.46,0,0,0-.19-.12l-.11,0h-.44c-2.42,0-4.78-.18-7.18-.26h-.54a2,2,0,0,1,.14.71C40.66,61.31,41.08,66.63,40.71,71.88Z"/></svg>